<?xml version="1.0" encoding="UTF-8" standalone="no"?>
<!-- Created with Inkscape (http://www.inkscape.org/) -->

<svg
   version="1.1"
   id="svg1"
   width="1006.2723"
   height="600.29169"
   viewBox="0 0 1006.2723 600.29169"
   sodipodi:docname="RRC-Logo_Master_Color.svg"
   inkscape:version="1.4.2 (f4327f4, 2025-05-13)"
   xmlns:inkscape="http://www.inkscape.org/namespaces/inkscape"
   xmlns:sodipodi="http://sodipodi.sourceforge.net/DTD/sodipodi-0.dtd"
   xmlns="http://www.w3.org/2000/svg"
   xmlns:svg="http://www.w3.org/2000/svg">
  <defs
     id="defs1" />
  <sodipodi:namedview
     id="namedview1"
     pagecolor="#ffffff"
     bordercolor="#000000"
     borderopacity="0.25"
     inkscape:showpageshadow="2"
     inkscape:pageopacity="0.0"
     inkscape:pagecheckerboard="0"
     inkscape:deskcolor="#d1d1d1"
     inkscape:zoom="1.0951869"
     inkscape:cx="471.60902"
     inkscape:cy="313.64511"
     inkscape:window-width="1920"
     inkscape:window-height="1002"
     inkscape:window-x="-8"
     inkscape:window-y="-8"
     inkscape:window-maximized="1"
     inkscape:current-layer="g1" />
  <g
     inkscape:groupmode="layer"
     inkscape:label="Image"
     id="g1"
     transform="translate(-251.6,-152.85788)">
    <path
       style="fill:#d4a017;fill-opacity:1"
       d="m 763.48834,247.7324 -0.43539,-1.2324 -6.51903,-40.5 -6.51903,-40.5 -0.98992,-5.93419 -0.98992,-5.93419 0.35087,-0.35087 0.35087,-0.35087 21.22719,-0.036 21.22719,-0.036 0.43401,0.43401 0.43402,0.43401 -4.00493,35.88707 -4.00493,35.88707 -1.03161,10.42361 -1.03162,10.42361 -0.36702,0.36702 -0.36703,0.36703 -3.66787,-2.1641 -3.66788,-2.1641 -4.99629,3.10587 -4.99629,3.10587 z"
       id="path107" />
    <path
       style="fill:#2c5e2e;fill-opacity:1"
       d="M 374.69848,250.79448 373,244.08897 v -3.62626 -3.62625 l 3.48882,-10.16823 3.48882,-10.16823 0.99651,-7.17206 0.99652,-7.17206 -0.96973,-7.64844 -0.96973,-7.64845 -1.97883,-4.47348 -1.97883,-4.47348 -2.03678,-2.86039 L 372,172.19126 V 171.59563 171 h 24.95469 24.95468 l 0.67455,3.59564 0.67455,3.59564 -0.49893,6.21557 -0.49893,6.21556 -2.11795,4.78799 -2.11796,4.788 -3.65887,4.98438 -3.65887,4.98438 -10.48814,8.09654 -10.48815,8.09654 -4.15297,5.64142 -4.15298,5.64141 -1.67244,5.92847 -1.67244,5.92846 -0.84144,4 -0.84145,4 z"
       id="path106" />
    <path
       style="fill:#d4a017;fill-opacity:1"
       d="m 798.94251,261.22218 -3.5575,-2.72218 -2.78739,-2.21856 -2.7874,-2.21856 1.69925,-10.28144 1.69924,-10.28144 6.90486,-38 6.90486,-38 0.40639,-1.11185 0.40638,-1.11185 5.8344,0.89957 5.8344,0.89956 8.5,1.99871 8.5,1.99872 6.72231,1.99767 6.72231,1.99767 -2.35858,5.2159 -2.35859,5.2159 -7.22164,15 -7.22164,15 -6.78793,14.5 -6.78794,14.5 -7.07233,14.75 -7.07234,14.75 -0.28182,-0.0278 -0.28181,-0.0278 z"
       id="path105" />
    <path
       style="fill:#d4a017;fill-opacity:1"
       d="M 743.19368,263.69154 742.23949,262.5 736.76336,252 l -5.47613,-10.5 -20.22922,-38.83106 -20.22922,-38.83107 0.33561,-0.27463 0.3356,-0.27463 8,-2.10613 8,-2.10613 11.42489,-2.03817 L 730.34978,155 h 1.21382 1.21382 l 0.68397,3.75 0.68397,3.75 4.9943,21 4.9943,21 5.93302,24.88428 L 756,254.26856 v 0.70526 0.70525 l -5.92607,4.60201 -5.92607,4.60201 z"
       id="path104" />
    <path
       style="fill:#d4a017;fill-opacity:1"
       d="M 697.08321,247.69463 667.5,218.38926 l -14.77161,-14.37981 -14.7716,-14.37982 0.35165,-1.05494 0.35164,-1.05494 7.91996,-4.7576 7.91996,-4.75761 10.39518,-4.55709 10.39519,-4.55708 0.84296,0.84296 0.84296,0.84296 29.9478,49.46186 29.94779,49.46185 -4.18594,3.7473 -4.18594,3.74729 -0.91679,0.003 -0.91679,0.003 z"
       id="path103" />
    <path
       style="fill:#d4a017;fill-opacity:1"
       d="m 815.51066,273.91006 -4.97791,-3.81181 -0.32765,-0.98294 -0.32764,-0.98294 8.1548,-14.31618 8.1548,-14.31619 4.79058,-8.5 4.79059,-8.5 14.19247,-25.75 14.19246,-25.75 h 1.05772 1.05772 l 9.43282,4.46837 9.43282,4.46837 6.18288,3.71671 6.18288,3.7167 3.29034,2.46439 3.29035,2.46438 -9.79035,10.08719 -9.79034,10.08719 -32.00572,32.62429 -32.00572,32.62428 z"
       id="path102" />
    <path
       style="fill:#2c5e2e;fill-opacity:1"
       d="m 488,267 v -11 h 11 11 v 11 11 h -11 -11 z"
       id="path101" />
    <path
       style="fill:#2c5e2e;fill-opacity:1"
       d="m 462,266.96617 v -11.03383 l 10.75,0.28383 10.75,0.28383 0.28383,10.75 0.28383,10.75 H 473.03383 462 Z"
       id="path100" />
    <path
       style="fill:#d4a017;fill-opacity:1"
       d="m 668.72337,269.73232 -40.77662,-20.10769 -1.61056,-5.56232 -1.61057,-5.56231 -3.81424,-8.81047 -3.81425,-8.81047 -2.97944,-4.84221 -2.97943,-4.8422 6.97933,-6.73798 6.97934,-6.73799 2.70154,2.47081 2.70153,2.4708 11.91214,10.41986 11.91214,10.41985 6.261,5.5 6.261,5.5 27.07686,23.35212 L 721,281.20424 v 0.77742 0.77742 l -4.4183,3.62046 L 712.16341,290 710.8317,289.92 709.5,289.84 Z"
       id="path99" />
    <path
       style="fill:#d4a017;fill-opacity:1"
       d="m 831.70954,286.61548 -4.79046,-4.2949 9.29046,-8.46724 9.29046,-8.46723 9.5,-8.44422 9.5,-8.44422 11.98566,-10.49883 L 888.47132,227.5 902.25101,215.25 916.0307,203 h 0.90116 0.90116 l 7.1593,7.75 7.15929,7.75 4.26416,6 4.26416,6 2.75468,4.74936 2.75468,4.74936 -6.34464,2.86642 -6.34465,2.86642 -20.5,9.5305 -20.5,9.53051 -27.83358,13.10371 L 836.83284,291 836.66642,290.9552 836.5,290.9104 Z"
       id="path98" />
    <path
       style="fill:#2c5e2e;fill-opacity:1"
       d="m 369.14591,295.00629 -3.3541,-5.78435 -6.38377,-8.36097 -6.38377,-8.36097 -12.04021,-14.5 -12.04022,-14.5 -4.22192,-8.42064 -4.22192,-8.42063 -0.32072,-27.84946 -0.32072,-27.84946 21.32072,0.2701 L 362.5,171.5 l 1.91624,5.5 1.91625,5.5 0.0838,12 0.0838,12 -3.49294,11.5 -3.49294,11.5 0.0739,11 0.0738,11 5.07772,16.5 5.07771,16.5 1.70382,7.80422 1.70381,7.80422 -0.36245,0.3411 -0.36244,0.34109 z"
       id="path97" />
    <path
       style="fill:#2c5e2e;fill-opacity:1"
       d="M 488,292.5 V 282 h 11 11 v 10.5 10.5 h -11 -11 z"
       id="path96" />
    <path
       style="fill:#2c5e2e;fill-opacity:1"
       d="M 462,292.5 V 282 h 11 11 v 10.5 10.5 h -11 -11 z"
       id="path95" />
    <path
       style="fill:#d4a017;fill-opacity:1"
       d="m 842,302.67939 v -6.32061 l 14.25,-5.63578 14.25,-5.63579 39,-14.92689 39,-14.9269 2.13234,-0.64676 2.13235,-0.64675 2.04943,7.78005 2.04943,7.78004 1.06823,7.19155 1.06822,7.19156 -0.011,8.80844 -0.011,8.80845 -0.61984,3.75 -0.61983,3.75 H 899.86916 842 Z"
       id="path94" />
    <path
       style="fill:#d4a017;fill-opacity:1"
       d="M 631.65181,302.75 632.5,296.5 v -14.73806 -14.73805 l 2,0.61351 2,0.61352 35.25,13.99669 35.25,13.99668 V 302.62215 309 h -38.09819 -38.09818 z"
       id="path93" />
    <path
       style="fill:#2c5e2e;fill-opacity:1"
       d="m 629.54631,553.75 -0.39093,-1.25 -0.60945,-55.5 -0.60946,-55.5 -0.75256,-5.58315 -0.75257,-5.58315 -7.96567,-9.03075 -7.96567,-9.03075 -12,-13.26476 -12,-13.26477 -2.36383,-2.92417 -2.36383,-2.92417 0.36383,-0.21154 0.36383,-0.21153 7.08611,-4.73002 7.08611,-4.73003 5.97849,-6.2556 5.97848,-6.25561 4.04697,-6 4.04697,-6 2.64454,-5.2288 2.64454,-5.2288 2.06574,-5.5212 L 626.1437,324 H 678.07185 730 v -8 -8 h -3.41821 -3.41822 L 721.58179,307.39301 720,306.78602 v -1.84212 -1.84212 l 3.75,-2.78628 3.75,-2.78629 17.37998,-13.5146 17.37999,-13.51461 5.54427,-4.25 5.54428,-4.25 h 0.79677 0.79678 l 17.27897,13.11805 17.27896,13.11805 9.72943,7.13195 9.72944,7.13195 0.62758,1.87485 0.62757,1.87484 -1.35701,0.85984 -1.35701,0.85984 -3.11408,0.0153 -3.11407,0.0153 -0.63593,4.63957 L 820,317.27914 V 320.63957 324 h 67 67 v 0.96249 0.96248 l -2.03214,5.43137 -2.03213,5.43137 -4.7816,7.95584 -4.78159,7.95583 -4.3761,5.18979 -4.37609,5.18978 -7.06017,5.35984 -7.06018,5.35984 -7,3.48248 -7,3.48248 -8.43598,2.66065 -8.43598,2.66065 -9.56402,1.59038 -9.56402,1.59038 -0.30654,0.25704 -0.30653,0.25705 7.92926,12.36013 7.92926,12.36013 14.30276,22.5 14.30275,22.5 10.66126,16 10.66125,16 6.41326,9.16509 6.41327,9.16509 6.34543,8.05389 6.34544,8.0539 9.7311,9.28101 9.7311,9.28102 7.1148,4.5 7.1148,4.5 0.0587,0.75861 L 992,555.01722 937.84889,554.75861 883.69778,554.5 856.57988,514 829.46198,473.5 800.11652,429.75 770.77106,386 H 735.38553 700 v 84.5 84.5 h -35.03138 -35.03139 z"
       id="path92" />
    <path
       style="fill:#2c5e2e;fill-opacity:1"
       d="m 556.14876,560.42877 -5.35124,-1.4396 -9.34338,-5.33797 -9.34339,-5.33797 -8.30537,-1.72887 -8.30538,-1.72888 -4.84128,-1.53843 -4.84129,-1.53842 -9.71386,-9.18074 -9.71386,-9.18075 -13.44486,-5.92593 -13.44485,-5.92593 -7.47052,-5.06212 -7.47052,-5.06212 -5.15434,-7.57807 -5.15433,-7.57807 -2.23583,-5.89245 -2.23583,-5.89245 -0.84818,-7 -0.84817,-7 -2.50195,-11.88915 -2.50195,-11.88915 -1.07226,-11.65517 -1.07225,-11.65516 1.0208,-8.95569 1.02081,-8.95568 2.03756,-7.32863 2.03756,-7.32863 3.0926,-6.17137 3.09261,-6.17137 4.30449,-6.07043 4.30448,-6.07044 6.16085,-5.70386 6.16085,-5.70386 7.66676,-4.49413 7.66676,-4.49414 8,-3.1087 8,-3.1087 11,-2.24865 11,-2.24864 13.26192,-0.73643 13.26191,-0.73642 -0.26191,-37.50861 L 533.5,248.75839 509.73148,234.37919 485.96296,220 l -1.23148,0.01 -1.23148,0.01 -6.5,4.14557 -6.5,4.14556 -14,8.48162 -14,8.48161 -2.75,1.93142 -2.75,1.93141 V 286.06809 323 l 11.25,0.0204 11.25,0.0204 -9,4.31226 -9,4.31227 -7.76613,6.26146 -7.76614,6.26146 -6.23386,8.36704 -6.23387,8.36704 -0.7294,-7.21119 -0.72939,-7.21118 -1.15806,-5 -1.15806,-5 -1.9257,-5 -1.92571,-5 -2.96835,-3.73057 -2.96835,-3.73057 -2.32625,-4.76943 -2.32626,-4.76943 -1.60833,-6 -1.60832,-6 -1.53391,-8.88099 L 389,279.73802 v -5.81979 -5.81979 l 1.13025,-5.27018 1.13025,-5.27018 1.82122,-4.24874 1.82123,-4.24874 4.26564,-4.62767 4.26565,-4.62768 8.16064,-6.46718 8.16065,-6.46717 5.11128,-6.29976 5.11127,-6.29976 2.98327,-6.38569 2.98326,-6.38569 1.06399,-7.5 1.06399,-7.5 -0.58888,-5.5 -0.58889,-5.5 -0.492,-2.35175 -0.492,-2.35174 40.79459,0.46657 40.79459,0.46657 8.87356,1.69052 8.87355,1.69051 7.88912,2.49217 7.88912,2.49217 6.71983,3.01498 6.71983,3.01499 8.08591,5.38018 8.08591,5.38018 7.25592,7.63859 7.25592,7.6386 3.826,5.91956 3.826,5.91956 3.67054,8.74917 3.67054,8.74917 2.14378,8.5 2.14377,8.5 0.0348,19.5 0.0348,19.5 -2.73465,9.78349 -2.73464,9.78349 -3.42314,7.40894 -3.42315,7.40894 -3.84166,5.78803 -3.84167,5.78803 -5.9527,6.36365 -5.95269,6.36366 -6.04731,4.28798 -6.0473,4.28798 -6.19142,3.10273 -6.19143,3.10273 -6.98064,2.3507 -6.98063,2.35071 12.17206,18.42776 12.17206,18.42775 14.43859,21.98672 14.43858,21.98671 9.31142,14.10088 L 616,484.70175 v 35.27288 35.27287 l -14.75,-0.50736 -14.75,-0.50736 -5.20258,-1.64105 -5.20258,-1.64105 -2.94627,-2.47912 -2.94628,-2.47913 -4.49028,-7.24621 L 561.22173,531.5 533.49264,484 505.76355,436.5 490.77509,411.25 475.78664,386 h -13.04831 -13.04831 l 0.69531,24.75 0.69531,24.75 0.99601,15 0.996,15 1.44929,6.25002 1.44928,6.25001 3.10719,6.15529 3.10718,6.1553 4.8463,4.72044 4.8463,4.72045 15.62962,7.7683 15.62962,7.7683 9.28851,8.74435 9.28852,8.74436 1.94098,1.03878 1.94097,1.03877 8.4518,2.14306 8.45179,2.14306 4.40044,2.56008 4.40044,2.56007 5.78037,5.31406 5.78037,5.31406 4.31919,2.22037 4.31919,2.22037 4,1.26835 4,1.26836 -9,10e-4 -9,10e-4 z"
       id="path91" />
    <path
       style="fill:#2c5e2e;fill-opacity:1"
       d="m 282.5,558.16264 4,-4.10599 10,-5.33374 10,-5.33374 4.22538,-6.94458 4.22538,-6.94459 0.0246,-0.82946 0.0246,-0.82945 -3.25,0.68085 -3.25,0.68085 -4.10792,1.77953 -4.10793,1.77952 L 294.5,538 l -5.78415,5.23816 -4.21423,1.86415 -4.21423,1.86415 -6.97215,0.98883 -6.97216,0.98883 -6.42154,-1.03006 L 253.5,546.88401 252.55,545.942 251.6,545 h 2.59466 2.59467 l 6.50527,-2.00927 6.50527,-2.00928 5.98757,-3.99834 5.98757,-3.99835 4.08441,-6.26899 4.08441,-6.269 3.27809,-3.06634 3.27808,-3.06634 3.5,-2.00794 3.5,-2.00793 8.25,-3.26151 8.25,-3.26151 0.0317,-124.1376 0.0317,-124.1376 2.21832,2.89943 2.21832,2.89943 6.27115,8.60057 6.27115,8.60057 5.32322,7.5 5.32323,7.5 6.58647,11 6.58646,11 4.68034,11.46122 4.68034,11.46122 2.32338,9.15902 2.32338,9.15903 1.14246,8.34412 1.14247,8.34411 -0.0342,14.53564 -0.0342,14.53564 -1.9821,10.21848 -1.98211,10.21848 -2.15079,4.78152 -2.15078,4.78152 -3.83552,20.24753 -3.83551,20.24752 -2.57585,5.6264 -2.57585,5.6264 -5.09499,6.27968 -5.09498,6.27968 -6.15361,4.93158 -6.1536,4.93159 -6.64477,4.91481 -6.64477,4.91481 -1.85523,1.18142 -1.85523,1.18143 11.10958,-2.85934 11.10959,-2.85933 3.76254,-1.57209 L 346.24425,510 h 0.99424 0.99423 l -3.38358,3.75 -3.38358,3.75 -2.12367,3.5 -2.12367,3.5 -1.12335,5.36563 -1.12335,5.36563 -2.024,2.84244 -2.02399,2.84244 -8.11923,5.72177 -8.11922,5.72178 -5.82297,2.352 -5.82296,2.35199 -10.26957,1.89476 -10.26958,1.89477 -2,0.70771 -2,0.70771 z"
       id="path90" />
    <path
       style="fill:#2c5e2e;fill-opacity:1"
       d="m 312,573.14107 v -1.20756 l 2.45084,-4.83649 2.45084,-4.8365 3.28198,-2.76161 3.28199,-2.76161 7.01717,-3.19923 7.01718,-3.19923 3.0735,-3.50319 3.0735,-3.50319 1.15332,-4.41623 1.15333,-4.41623 1.10094,-4.5 1.10093,-4.5 6.06694,-5.5 6.06693,-5.5 5.89756,-5.75667 5.89755,-5.75668 3.45775,-7.21511 L 379,488.55642 v -2.33723 -2.33722 l 1,0.61803 1,0.61803 v 13.37589 13.37588 l 1.0616,2.8151 1.06161,2.8151 3.55274,5.17469 3.55275,5.17469 0.49288,4.37286 0.49289,4.37287 -3.73966,8.95245 -3.73966,8.95244 0.0185,7.35079 0.0185,7.35079 -1.9356,-2.85079 -1.9356,-2.85079 -1.87153,-3.55536 -1.87154,-3.55537 -1.01022,-7.28993 -1.01023,-7.28994 -1.72373,-1.9047 L 370.69002,538 h -2.17069 -2.1707 l -2.06146,2.25 -2.06147,2.25 -2.22065,4.5 -2.22065,4.5 -3.1422,3.33929 -3.1422,3.33929 -4.84532,2.47586 -4.84532,2.47586 -9.01513,1.96758 -9.01513,1.96758 -3.6259,1.515 -3.62591,1.515 -2.26364,2.12658 L 312,574.34863 Z"
       id="path89" />
    <path
       id="path86"
       style="fill:#2c5e2e;fill-opacity:1"
       d="M 1068.5004 167.8989 L 1055.5004 168.51022 L 1042.5004 169.1196 L 1032.5004 170.1235 L 1022.5004 171.12741 L 1009.5004 173.64108 L 996.50039 176.1528 L 984.00039 180.20554 L 971.50039 184.25827 L 963.225 188.07663 L 954.94766 191.89499 L 946.975 196.63718 L 939.00039 201.38132 L 939.00039 202.18015 L 939.00039 202.97897 L 944.05313 208.55905 L 949.10586 214.13718 L 953.43203 220.01608 L 957.76016 225.89499 L 962.77188 235.69772 L 967.78359 245.50046 L 970.40273 253.50046 L 973.02383 261.50046 L 974.54141 268.50046 L 976.06094 275.50046 L 976.67422 288.59226 L 977.28555 301.68601 L 976.06289 311.40085 L 974.84023 321.11374 L 972.85586 328.3071 L 970.87148 335.50046 L 966.53359 344.67819 L 962.1957 353.85593 L 958.96719 358.54733 L 955.74063 363.23874 L 949.25234 370.11569 L 942.76602 376.99265 L 936.32461 381.58835 L 929.8832 386.18405 L 921.54336 390.09226 L 913.20547 394.00046 L 912.1625 394.00046 L 911.11758 394.00046 L 910.46719 395.05515 L 909.81484 396.10983 L 914.82656 404.80515 L 919.83633 413.50046 L 924.80313 428.50046 L 929.76797 443.50046 L 934.46328 454.42429 L 939.15664 465.34811 L 944.21328 475.42429 L 949.26797 485.50046 L 954.63711 494.31296 L 960.00625 503.12741 L 965.9125 510.81296 L 971.8168 518.50046 L 980.15859 526.66452 L 988.50039 534.82858 L 996.3832 540.43405 L 1004.268 546.04147 L 1012.3832 550.42038 L 1020.5004 554.79929 L 1032.0004 559.35593 L 1043.5004 563.91257 L 1057.5004 567.34421 L 1071.5004 570.7739 L 1084.0004 572.38522 L 1096.5004 573.99655 L 1101.0004 574.39304 L 1105.5004 574.78952 L 1127.5004 574.44186 L 1149.5004 574.09421 L 1161.0004 572.51218 L 1172.5004 570.93015 L 1184.8148 568.40476 L 1197.1293 565.87936 L 1208.8148 561.86569 L 1220.5004 557.85397 L 1229.5004 553.59811 L 1238.5004 549.34421 L 1247.7152 543.63327 L 1256.9301 537.92233 L 1257.4008 537.16061 L 1257.8715 536.39694 L 1235.4359 522.47116 L 1213.0004 508.54538 L 1213.0004 369.35788 L 1213.0004 230.16843 L 1219.5004 224.46335 L 1226.0004 218.75632 L 1226.0004 218.04538 L 1226.0004 217.3364 L 1220.2504 213.06491 L 1214.5004 208.79147 L 1205.0004 203.18796 L 1195.5004 197.58249 L 1184.0004 192.38718 L 1172.5004 187.19186 L 1161.5004 183.51804 L 1150.5004 179.84225 L 1136.5004 176.45749 L 1122.5004 173.07468 L 1112.0004 171.55905 L 1101.5004 170.04343 L 1085.0004 168.97116 L 1068.5004 167.8989 z M 1020.0004 208.12546 L 1023.2504 208.57272 L 1026.5004 209.01999 L 1056.0004 212.47116 L 1085.5004 215.92038 L 1128.0004 220.9653 L 1170.5004 226.00827 L 1177.5004 226.75436 L 1184.5004 227.50046 L 1184.7523 377.75046 L 1185.0062 528.00046 L 1178.9711 528.00046 L 1172.9379 528.00046 L 1172.4652 526.75046 L 1171.9926 525.50046 L 1171.7465 381.00046 L 1171.5004 236.50046 L 1159.0004 235.83054 L 1146.5004 235.15866 L 1106.0004 233.06296 L 1065.5004 230.9653 L 1054.7504 230.33249 L 1044.0004 229.69968 L 1044.0004 366.35007 L 1044.0004 503.00046 L 1041.7504 502.99851 L 1039.5004 502.99851 L 1031.2641 504.63327 L 1023.0277 506.26804 L 1021.5141 505.01218 L 1020.0004 503.75436 L 1020.0004 355.93991 L 1020.0004 208.12546 z M 1074.8051 381.81296 L 1078.3246 383.48483 L 1081.8461 385.15476 L 1083.5062 388.65476 L 1085.1664 392.1528 L 1085.1664 396.40866 L 1085.1664 400.66452 L 1083.6625 404.26608 L 1082.1566 407.86765 L 1079.1293 409.43405 L 1076.1 411.00046 L 1073.184 411.00046 L 1070.2699 411.00046 L 1067.6156 408.91257 L 1064.9594 406.82272 L 1063.4809 403.9614 L 1062.0004 401.10007 L 1062.0004 396.48483 L 1062.0004 391.86765 L 1063.1254 389.68405 L 1064.2504 387.50046 L 1066.2855 385.26608 L 1068.3207 383.02976 L 1071.5629 382.42233 L 1074.8051 381.81296 z " />
    <path
       style="fill:#2c5e2e;fill-opacity:1"
       d="m 417.11974,573.98007 -6.38027,-3.01835 -3.79103,-3.00256 -3.79103,-3.00255 -2.07871,-4.29403 L 399,556.36855 v -2.65824 -2.65825 l 3.10388,-7.77603 3.10388,-7.77603 -0.53636,-6 -0.53637,-6 -3.07252,-7.71336 -3.07252,-7.71336 0.255,-18.78664 L 398.5,470.5 395.70221,460 l -2.79779,-10.5 -0.53062,-9.5 -0.53062,-9.5 1.0631,1.5 1.06309,1.5 0.0153,3.11996 0.0153,3.11995 2.95977,9.96296 2.95977,9.96295 6.10157,14.41709 6.10158,14.41709 3.06841,5.46477 3.06842,5.46477 4.04478,5.35728 4.04478,5.35727 4.34238,2.98764 4.34238,2.98764 5.73308,1.99015 5.73308,1.99014 6.97395,1.48353 6.97395,1.48352 3.38375,1.99647 3.38375,1.99646 8.1423,6.29133 8.1423,6.29132 3.5,2.09938 3.5,2.09938 10,3.72444 10,3.72445 4,2.75517 4,2.75518 3,3.19123 3,3.19123 2.96591,2.13046 2.9659,2.13046 7.5341,2.80997 7.53409,2.80997 -10,-0.48653 -10,-0.48652 -5.52248,-1.91314 -5.52247,-1.91314 -5.40628,-2.73957 -5.40627,-2.73956 -4.07125,-1.4608 -4.07125,-1.46079 -10.71201,-0.81449 -10.71201,-0.8145 -4.32598,-2.53519 -4.32597,-2.53519 -4.74119,-6.03477 -4.74119,-6.03478 -2.84818,-2.02808 -2.84818,-2.02809 -5.83274,-1.51923 L 438.5798,534 l -8.0399,0.0626 -8.0399,0.0626 7.48841,2.50056 7.48841,2.50056 3.35989,2.56271 3.35988,2.56271 2.96823,6.62413 2.96824,6.62414 2.18347,2.38148 2.18347,2.38149 5.87728,2.80872 5.87729,2.80873 4.87271,1.24884 L 476,570.3781 v 0.64558 0.64557 l -8.25,-0.36758 -8.25,-0.36758 -5.96667,-1.06 -5.96667,-1.05999 -4.81696,-2.44094 -4.81696,-2.44094 -2.71637,-4.12525 L 432.5,555.68171 428.86765,551.84085 425.23529,548 h -2.89514 -2.89514 l -2.18258,1.52874 -2.18259,1.52874 -0.632,3.36888 -0.63201,3.36887 2.09606,4.73849 2.09606,4.73848 3.49436,4.8639 3.49436,4.8639 -0.74833,-7.9e-4 -0.74834,-7.9e-4 z"
       id="path85" />
    <path
       style="fill:#2c5e2e;fill-opacity:1"
       d="M 1106,647.5 V 606 h 35 35 v 8.5 8.5 h -23.5 -23.5 v 7.97971 7.97971 l 20.7026,0.27029 20.7027,0.27029 0.3829,3.93674 0.3829,3.93674 -0.6468,4.31326 L 1169.8775,656 H 1149.4387 1129 v 8 8 h 24 24 v 8.5 8.5 h -35.5 -35.5 z"
       id="path84" />
    <path
       id="path82"
       style="fill:#2c5e2e;fill-opacity:1"
       d="M 313.00039 605.83249 L 313.00039 645.83444 L 313.00039 685.8364 L 313.60781 687.41843 L 314.21328 689.00046 L 325.10781 689.00046 L 336.00039 689.00046 L 336.00039 677.00046 L 336.00039 665.00046 L 344.91641 665.00046 L 353.83242 665.00046 L 354.16641 665.97702 L 354.50039 666.95358 L 362.50039 677.93601 L 370.50039 688.91843 L 383.37344 688.95944 L 396.24453 689.00046 L 395.2582 687.75046 L 394.26992 686.50046 L 389.38516 680.13327 L 384.50039 673.76608 L 379.85781 667.68991 L 375.21719 661.61569 L 379.41836 658.94968 L 383.61953 656.28561 L 386.66836 652.5864 L 389.71719 648.88718 L 390.85977 645.07858 L 392.00039 641.26804 L 391.99063 634.38327 L 391.98086 627.50046 L 389.5668 622.31491 L 387.15273 617.12936 L 382.34805 613.64304 L 377.54141 610.15671 L 372.52188 608.39108 L 367.50039 606.62546 L 340.25039 606.22897 L 313.00039 605.83249 z M 336.00039 623.00046 L 348.03164 623.00046 L 360.06484 623.00046 L 363.56875 624.46335 L 367.07266 625.92819 L 368.63906 629.67819 L 370.20547 633.42819 L 369.68398 637.31296 L 369.16445 641.19577 L 366.90664 643.60007 L 364.64883 646.00241 L 361.07461 646.99655 L 357.50039 647.98874 L 346.75039 647.9946 L 336.00039 648.00046 L 336.00039 635.50046 L 336.00039 623.00046 z " />
    <path
       style="fill:#2c5e2e;fill-opacity:1"
       d="M 974.66667,689.33333 974,688.66667 V 647.33333 606 h 11.5 11.5 v 42 42 h -10.83333 -10.83334 z"
       id="path81" />
    <path
       id="path79"
       style="fill:#2c5e2e;fill-opacity:1"
       d="M 876.20352 605.83444 L 875.51602 616.16843 L 874.82852 626.50046 L 875.36367 653.00046 L 875.89883 679.50046 L 875.94961 684.75046 L 876.00039 690.00046 L 887.00039 690.00046 L 898.00039 690.00046 L 898.00039 677.50046 L 898.00039 665.00046 L 906.79531 665.00046 L 915.59219 665.00046 L 924.54531 677.45163 L 933.50039 689.90476 L 946.25039 689.95163 L 959.00039 690.00046 L 959.00039 689.60202 L 959.00039 689.20358 L 948.40273 675.44577 L 937.80703 661.68796 L 939.35586 660.82077 L 940.90469 659.95358 L 945.14883 656.71726 L 949.39102 653.48093 L 951.9457 648.51218 L 954.50039 643.54147 L 954.47891 635.01999 L 954.45547 626.50046 L 952.30117 622.4321 L 950.14492 618.36374 L 946.20352 614.80319 L 942.26211 611.24069 L 936.38125 608.91452 L 930.50039 606.58835 L 903.35195 606.2114 L 876.20352 605.83444 z M 898.00039 623.00046 L 910.03164 623.00046 L 922.06484 623.00046 L 925.28164 624.36179 L 928.50039 625.72311 L 930.4418 627.9028 L 932.38516 630.08249 L 932.38516 634.92233 L 932.38516 639.76413 L 930.61367 642.4653 L 928.84414 645.16647 L 925.45352 646.58444 L 922.06484 648.00046 L 910.03164 648.00046 L 898.00039 648.00046 L 898.00039 635.50046 L 898.00039 623.00046 z " />
    <path
       style="fill:#2c5e2e;fill-opacity:1"
       d="M 651,656.5 V 623 H 636.5 622 v -8.5 -8.5 h 40 40 v 8.5 8.5 H 688 674 V 656.5 690 H 662.5 651 Z"
       id="path78" />
    <path
       style="fill:#2c5e2e;fill-opacity:1"
       d="m 1046.4277,689.83842 -7.0723,-0.74971 -7.7326,-2.45557 -7.7327,-2.45558 -5.3862,-3.26437 -5.3862,-3.26437 2.5694,-3.07439 2.5693,-3.07439 3.4549,-3.84484 3.4549,-3.84485 7.1669,3.61521 7.1669,3.61521 7.229,1.48859 7.2289,1.48858 4.7549,-1.06559 4.7549,-1.06559 1.7661,-1.59835 1.7662,-1.59835 v -1.76322 -1.76323 l -0.6212,-1.61877 -0.6212,-1.61877 -3.105,-1.60568 -3.1051,-1.60568 -12.8278,-3.32433 -12.8278,-3.32433 -5.0662,-2.75738 -5.0662,-2.75738 -2.3244,-3.04741 -2.3243,-3.04741 -1.0938,-4.88069 -1.0938,-4.8807 0.663,-4.421 0.6629,-4.421 3.1255,-4.66841 3.1254,-4.66841 6.5,-3.2619 6.5,-3.2619 7.7279,-1.11448 7.7279,-1.11449 8.0264,1.17362 8.0264,1.17362 5.3329,1.83477 5.3328,1.83477 2.9129,1.5733 2.9128,1.57329 1.3892,0.93165 1.3892,0.93166 -5.4932,7.02065 -5.4933,7.02066 -2.896,-1.92975 -2.8959,-1.92975 -6.3553,-1.98597 L 1058.7893,621 h -5.8476 -5.8476 l -2.4368,1.11027 -2.4368,1.11027 -1.1258,2.47103 -1.1259,2.47102 1.2656,2.66871 1.2656,2.6687 7,2.17161 7,2.1716 10.0722,3.05828 10.0722,3.05827 4.0464,2.9312 4.0464,2.9312 2.3472,3.29637 2.3472,3.29638 0.3944,6.19363 0.3944,6.19363 -1.2161,3.68468 -1.216,3.68469 -3.0541,3.47845 -3.0542,3.47845 -4.59,2.29886 -4.59,2.29885 -5,1.07555 -5,1.07555 -4.5,0.35542 -4.5,0.35543 z"
       id="path77" />
    <path
       id="path75"
       style="fill:#2c5e2e;fill-opacity:1"
       d="M 566.00039 604.04929 L 558.25039 605.02976 L 550.50039 606.01022 L 545.81289 607.56491 L 541.12539 609.1196 L 535.31289 612.88327 L 529.50039 616.64499 L 526.12148 620.50241 L 522.74453 624.35983 L 519.93984 630.29147 L 517.13516 636.22116 L 516.4457 642.65476 L 515.7582 649.0903 L 516.96719 655.29538 L 518.17617 661.50046 L 521.25625 667.30319 L 524.33438 673.10593 L 529.63125 677.94577 L 534.92813 682.78561 L 539.68789 685.0903 L 544.44766 687.39499 L 551.475 689.19186 L 558.50039 690.98679 L 568.50039 690.59226 L 578.50039 690.19772 L 585.29531 687.94382 L 592.09219 685.68796 L 597.96328 681.59421 L 603.83438 677.50046 L 607.01602 673.50046 L 610.19961 669.50046 L 612.0043 665.97507 L 613.81094 662.45163 L 615.04531 656.17624 L 616.27969 649.90085 L 615.68398 643.69968 L 615.08633 637.50046 L 613.52969 632.98483 L 611.97109 628.46726 L 607.42031 622.67038 L 602.87148 616.87351 L 596.87148 612.99655 L 590.87344 609.1196 L 586.18594 607.56491 L 581.50039 606.01022 L 573.75039 605.02976 L 566.00039 604.04929 z M 563.36172 621.75241 L 569.39688 622.38327 L 575.43398 623.01413 L 579.96719 625.36765 L 584.50039 627.72116 L 587.72305 631.9028 L 590.9457 636.08444 L 592.08438 640.29147 L 593.22305 644.50046 L 592.70547 650.25046 L 592.18984 656.00046 L 589.57266 660.46726 L 586.95547 664.9321 L 583.52188 667.55124 L 580.09023 670.16843 L 575.38711 671.58444 L 570.68203 673.00046 L 565.59023 672.95358 L 560.50039 672.90671 L 555.58047 670.98679 L 550.6625 669.06491 L 547.24648 665.78171 L 543.82852 662.50046 L 542.41445 659.79929 L 541.00039 657.10007 L 539.92422 652.07858 L 538.84609 647.0571 L 540.01992 641.40866 L 541.1918 635.76022 L 546.34609 630.4653 L 551.50039 625.17233 L 557.43008 623.46335 L 563.36172 621.75241 z " />
    <path
       id="path73"
       style="fill:#2c5e2e;fill-opacity:1"
       d="M 454.97305 604.05319 L 447.23672 605.03171 L 439.50039 606.01022 L 434.81289 607.56491 L 430.12539 609.1196 L 424.31289 612.88327 L 418.50039 616.64499 L 415.10195 620.52585 L 411.70547 624.40476 L 408.8793 630.45358 L 406.05313 636.50046 L 405.40664 643.50436 L 404.7582 650.50827 L 406.39492 656.8989 L 408.03359 663.28952 L 410.72305 668.23483 L 413.41445 673.17819 L 418.67227 677.98288 L 423.92813 682.78561 L 428.59805 685.04733 L 433.26992 687.30905 L 439.88516 689.09421 L 446.50039 690.87936 L 454.50039 690.92429 L 462.50039 690.97116 L 468.82461 689.47897 L 475.14688 687.98874 L 480.5707 685.42233 L 485.99453 682.85788 L 491.53359 677.79538 L 497.07266 672.73288 L 499.6918 668.26413 L 502.31094 663.79538 L 503.63906 658.14694 L 504.96914 652.50046 L 504.98477 646.85593 L 505.00039 641.2114 L 503.02188 634.85593 L 501.04336 628.50046 L 496.5707 622.83249 L 492.1 617.16452 L 487.47109 613.98093 L 482.84414 610.79733 L 477.06094 608.44772 L 471.27969 606.09811 L 463.12539 605.07468 L 454.97305 604.05319 z M 454.02578 621.77194 L 459.40469 622.44577 L 464.78359 623.11765 L 470.10586 626.30905 L 475.42813 629.50046 L 478.30117 634.15671 L 481.17227 638.81296 L 481.71328 644.76804 L 482.25234 650.72311 L 480.49258 656.02194 L 478.73281 661.31882 L 474.54922 665.50436 L 470.36563 669.68796 L 465.5043 671.34421 L 460.64297 673.00046 L 455.07266 672.91452 L 449.50039 672.82858 L 446.99258 672.06491 L 444.48672 671.30319 L 441.49258 669.73679 L 438.50039 668.17038 L 435.36172 664.83444 L 432.22305 661.50046 L 430.66641 658.40671 L 429.10977 655.31296 L 428.44375 650.29343 L 427.77773 645.2739 L 429.36563 639.81491 L 430.95156 634.35593 L 434.65664 630.54147 L 438.35977 626.72897 L 442.43008 624.94382 L 446.50039 623.15866 L 450.26211 622.4653 L 454.02578 621.77194 z " />
    <path
       id="path70"
       style="fill:#2c5e2e;fill-opacity:1"
       d="M 780.15078 603.93796 L 773.46328 605.00632 L 766.77383 606.07468 L 763.13711 607.94968 L 759.50039 609.82468 L 756.31094 613.16257 L 753.12344 616.50046 L 752.06094 619.31491 L 751.00039 622.12936 L 751.00039 626.59811 L 751.00039 631.06491 L 752.53164 634.72897 L 754.06094 638.39304 L 756.41055 641.47116 L 758.7582 644.54929 L 754.78555 646.48093 L 750.81484 648.41257 L 746.5082 653.20163 L 742.20156 657.99265 L 741.01211 662.95163 L 739.82266 667.91257 L 740.5082 671.20554 L 741.1957 674.50046 L 743.53555 678.57077 L 745.87344 682.64108 L 749.86367 685.40671 L 753.85586 688.17233 L 759.67813 690.03171 L 765.50039 691.89304 L 774.03945 691.94577 L 782.58047 692.00046 L 788.33438 690.50046 L 794.08828 689.00241 L 797.7543 687.12155 L 801.41836 685.24265 L 805.03945 688.1528 L 808.66055 691.06296 L 821.51602 690.78171 L 834.36953 690.50046 L 824.72109 682.13718 L 815.0707 673.7739 L 817.42422 670.63718 L 819.77578 667.50046 L 822.43594 662.18796 L 825.09609 656.87546 L 825.98281 654.54343 L 826.86953 652.21335 L 818.30898 650.06491 L 809.74844 647.91843 L 809.52383 648.20944 L 809.29922 648.50046 L 806.01016 654.75046 L 802.72109 661.00046 L 801.75039 661.00046 L 800.78164 661.00046 L 794.14102 654.41257 L 787.50039 647.82663 L 788.62344 647.37155 L 789.74453 646.91843 L 796.04922 642.69382 L 802.35391 638.47116 L 804.67813 634.07858 L 807.00039 629.68601 L 807.00039 626.03952 L 807.00039 622.39304 L 804.46719 617.30905 L 801.93398 612.22702 L 798.21719 609.72116 L 794.50039 607.2153 L 791.00039 606.19186 L 787.50039 605.16843 L 783.82461 604.55319 L 780.15078 603.93796 z M 776.86758 618.00046 L 780.32266 618.00046 L 783.77773 618.00046 L 786.08828 619.87155 L 788.40078 621.74265 L 788.40078 625.35788 L 788.40078 628.97311 L 785.74453 631.7446 L 783.09023 634.51608 L 780.12148 636.26999 L 777.15273 638.0239 L 775.10195 635.14304 L 773.04922 632.26218 L 771.99453 629.48679 L 770.93984 626.7114 L 772.04922 623.34811 L 773.16055 619.98483 L 775.01406 618.99265 L 776.86758 618.00046 z M 768.34805 657.00046 L 769.25234 657.00046 L 770.15664 657.00046 L 779.06289 665.25046 L 787.97109 673.50046 L 787.98477 674.2114 L 788.00039 674.92233 L 782.81875 676.4614 L 777.63711 678.00046 L 775.56875 677.91452 L 773.50039 677.82858 L 770.9418 677.05124 L 768.3832 676.27585 L 766.27188 675.14499 L 764.16055 674.01608 L 763.04922 670.65085 L 761.93984 667.28757 L 763.0375 664.39499 L 764.1332 661.50046 L 766.24063 659.25046 L 768.34805 657.00046 z " />
    <path
       style="fill:#2c5e2e;fill-opacity:1"
       d="m 1047,735.56376 v -3.43627 l 4.25,0.35595 4.25,0.35595 40.2684,0.69804 40.2684,0.69804 3.2316,0.31845 3.2316,0.31845 10.5,0.14278 10.5,0.14278 -1,0.38338 -1,0.38337 -54.568,1.53768 L 1052.364,739 h -2.682 -2.682 z"
       id="path69" />
    <path
       style="fill:#2c5e2e;fill-opacity:1"
       d="m 376,737.447 -32.5,-1.25499 -10.95,-0.096 -10.95,-0.096 0.95,-0.89807 0.95,-0.89806 53.75128,-0.85194 53.75128,-0.85193 -0.001,3.25 L 431,739 419.75,738.85097 408.5,738.70194 Z"
       id="path68" />
    <path
       style="fill:#2c5e2e;fill-opacity:1"
       d="M 985,737.5 V 722 h 3.41804 3.41805 l 9.58191,10.22259 9.582,10.2226 V 732.22259 722 h 4 4 l -0.01,8.75 -0.01,8.75 -0.6375,6.75 -0.6375,6.75 h -3.0925 -3.0925 l -9.7128,-10.25 -9.71278,-10.25 -0.0501,10.25 L 992,753 h -3.5 -3.5 z"
       id="path67"
       inkscape:label="path67" />
    <path
       id="path65"
       style="fill:#2c5e2e;fill-opacity:1"
       d="M 940.50039 721.50046 L 935.75625 724.28952 L 931.01211 727.07858 L 929.50625 729.98874 L 928.00039 732.90085 L 928.00039 737.30319 L 928.00039 741.70358 L 930.2582 745.10202 L 932.51602 748.50046 L 936.96914 750.75046 L 941.42422 753.00046 L 947.00039 753.00046 L 952.57656 753.00046 L 957.02969 750.75046 L 961.48477 748.50046 L 963.74258 745.10202 L 966.00039 741.70358 L 965.99648 737.10202 L 965.99258 732.50046 L 964.03555 729.28952 L 962.07852 726.08054 L 957.78945 723.82663 L 953.50039 721.57468 L 947.00039 721.53757 L 940.50039 721.50046 z M 946.80703 726.74069 L 950.34414 727.40476 L 953.8793 728.06882 L 956.43984 731.10983 L 959.00039 734.1528 L 959.00039 736.52976 L 959.00039 738.90671 L 957.80508 741.5278 L 956.60977 744.15085 L 953.85586 745.57468 L 951.1 747.00046 L 946.56484 747.00046 L 942.03164 747.00046 L 938.78945 744.10202 L 935.54531 741.20554 L 935.54531 737.1821 L 935.54531 733.16061 L 937.43594 731.07077 L 939.32656 728.98288 L 943.0668 727.86179 L 946.80703 726.74069 z " />
    <path
       style="fill:#2c5e2e;fill-opacity:1"
       d="M 902,737.5 V 722 h 3.5 3.5 v 15.5 15.5 h -3.5 -3.5 z"
       id="path64" />
    <path
       style="fill:#2c5e2e;fill-opacity:1"
       d="M 865.71406,752.38073 865,751.66667 v -11.71671 -11.7167 l -2.25,-0.60297 -2.25,-0.60298 -3.25,-0.0137 L 854,727 v -2.5 -2.5 h 15 15 v 2.5 2.5 l -4.25,0.0153 -4.25,0.0153 -1.21643,0.77295 -1.21644,0.77296 -0.28356,11.96173 L 872.5,752.5 l -3.03594,0.29739 -3.03594,0.2974 z"
       id="path63" />
    <path
       style="fill:#2c5e2e;fill-opacity:1"
       d="m 815.40107,751.09457 -4.09893,-1.86151 -2.31014,-3.24429 -2.31014,-3.24429 -0.43005,-4.62224 -0.43005,-4.62224 2.36292,-3.4762 2.36291,-3.47621 3.1997,-2.15628 3.19971,-2.15627 4.62517,-0.69359 4.62517,-0.69359 4.65133,1.1325 4.65133,1.1325 1.95909,1.4567 1.95909,1.45671 -2.01637,2.01636 -2.01636,2.01637 -3.66061,-1.5295 L 828.06424,727 H 825.5 822.93576 l -3.50387,1.46401 -3.50387,1.46401 -1.37308,3.28625 -1.37308,3.28624 0.52774,2.76071 0.52775,2.76071 2.95805,2.48903 2.95805,2.48904 4.67328,-0.006 4.67327,-0.006 2.93536,-1.5307 2.93536,-1.53071 1.98234,1.98234 1.98233,1.98234 -1.27593,1.53741 -1.27594,1.5374 -3.64176,1.01155 -3.64176,1.01154 -5,-0.0164 -5,-0.0164 z"
       id="path62" />
    <path
       style="fill:#2c5e2e;fill-opacity:1"
       d="m 762.84594,750.8353 -3.65406,-2.11875 -1.09594,-2.40533 L 757,743.90589 V 732.95295 722 h 3.5 3.5 v 9.86514 9.86514 l 2.07258,2.63486 L 768.14516,747 H 772.57258 777 l 2,-2 2,-2 V 732.5 722 h 3.5 3.5 v 11.36514 11.36514 l -2.1679,2.75604 -2.1679,2.75604 -3.29998,1.37882 L 777.06424,753 771.78212,752.977 766.5,752.954 Z"
       id="path61" />
    <path
       id="path59"
       style="fill:#2c5e2e;fill-opacity:1"
       d="M 708.00039 722.00046 L 708.00039 737.56296 L 708.00039 753.12741 L 711.25039 752.81296 L 714.50039 752.50046 L 714.80508 747.75046 L 715.10977 743.00046 L 718.80508 742.98093 L 722.50039 742.95944 L 727.0082 748.05515 L 731.51602 753.1489 L 735.23086 752.82468 L 738.9457 752.50046 L 735.1332 747.53171 L 731.31875 742.56491 L 734.65859 739.41452 L 738.00039 736.26413 L 738.00039 732.56686 L 738.00039 728.86765 L 736.97109 726.94382 L 735.93984 725.01999 L 733.01992 723.51022 L 730.1 722.00046 L 719.04922 722.00046 L 708.00039 722.00046 z M 715.00039 728.00046 L 721.79922 728.00046 L 728.6 728.00046 L 729.79922 729.19968 L 731.00039 730.40085 L 731.00039 732.66452 L 731.00039 734.93015 L 729.06484 735.9653 L 727.13125 737.00046 L 721.06484 737.00046 L 715.00039 737.00046 L 715.00039 732.50046 L 715.00039 728.00046 z " />
    <path
       style="fill:#2c5e2e;fill-opacity:1"
       d="M 671.71406,752.38073 671,751.66667 v -11.71671 -11.7167 l -2.25,-0.60297 -2.25,-0.60298 -3.13342,-0.0137 -3.13343,-0.0136 -0.4779,-2.5 -0.47791,-2.5 H 674.63867 690 v 2.38478 2.38477 l -5.46977,0.68341 -5.46977,0.6834 -0.28023,12.18182 L 678.5,752.5 l -3.03594,0.29739 -3.03594,0.2974 z"
       id="path58" />
    <path
       style="fill:#2c5e2e;fill-opacity:1"
       d="m 621.62479,751.5309 -3.8752,-1.38131 -0.8208,-0.8248 -0.82081,-0.82479 1.72993,-2.28926 1.72992,-2.28926 3.68397,1.53926 3.68396,1.53926 h 4.56351 4.5635 l 0.58049,-1.51273 0.58049,-1.51274 -1.16944,-1.40909 -1.16945,-1.4091 -4.19243,-0.69796 -4.19243,-0.69797 -3.77917,-1.50046 -3.77918,-1.50046 -0.97082,-1.814 L 617,733.13148 V 730.06574 727 l 1.94725,-1.94725 1.94726,-1.94726 4.23164,-1.13946 4.23165,-1.13946 4.45141,0.66753 4.45142,0.66753 2.36969,1.0797 2.36968,1.0797 v 0.64836 0.64835 l -1.34709,1.84226 -1.34709,1.84226 -3.30214,-1.15113 L 633.70155,727 h -3.15964 -3.15965 l -1.90338,1.39179 -1.90339,1.39178 1.22955,1.48151 1.22954,1.48151 5.73271,1.13117 5.73271,1.13118 3.22316,1.96451 3.22317,1.96451 0.67049,2.67145 0.67049,2.67145 -0.89366,2.4971 -0.89365,2.4971 -3.4844,1.86247 -3.4844,1.86247 -5.5156,-0.0439 -5.5156,-0.0439 z"
       id="path57" />
    <path
       style="fill:#2c5e2e;fill-opacity:1"
       d="M 563.71406,752.38073 563,751.66667 V 736.83333 722 l 3.75,-0.0206 3.75,-0.0206 9.70664,10.27063 9.70665,10.27063 0.0434,-10.25 L 590,722 h 3.5 3.5 v 15.5 15.5 h -3.42889 -3.4289 l -9.3211,-9.98608 -9.32111,-9.98608 -0.5,9.73608 -0.5,9.73608 -3.03594,0.29739 -3.03594,0.2974 z"
       id="path56" />
    <path
       id="path54"
       style="fill:#2c5e2e;fill-opacity:1"
       d="M 525.00039 720.6821 L 519.6918 721.8696 L 514.3832 723.0571 L 511.18594 725.97702 L 507.99063 728.89694 L 506.99453 731.51413 L 506.00039 734.12936 L 506.00039 737.61569 L 506.00039 741.10007 L 507.39688 743.80124 L 508.79531 746.50436 L 510.83047 748.34811 L 512.86758 750.18991 L 516.68398 751.55124 L 520.50039 752.91257 L 525.93398 752.95554 L 531.36758 753.00046 L 535.60195 750.95163 L 539.83438 748.90085 L 541.52383 746.32468 L 543.21328 743.74655 L 544.10586 740.63132 L 545.00039 737.51413 L 544.36367 734.1196 L 543.72695 730.72507 L 539.95547 726.95554 L 536.18398 723.18405 L 530.59219 721.93405 L 525.00039 720.6821 z M 524.80703 726.74069 L 528.29141 727.39499 L 531.77578 728.04929 L 534.38711 730.66061 L 537.00039 733.27194 L 537.00039 736.70163 L 537.00039 740.13132 L 535.97109 742.05515 L 534.93984 743.97897 L 532.01992 745.48874 L 529.1 747.00046 L 524.56484 747.00046 L 520.03164 747.00046 L 516.81484 744.12741 L 513.6 741.25436 L 513.6 737.75632 L 513.6 734.26022 L 515.29531 731.67038 L 516.99258 729.08249 L 520.89883 727.91257 L 524.80703 726.74069 z " />
    <path
       style="fill:#2c5e2e;fill-opacity:1"
       d="m 464.96996,750.75 -4.45382,-2.25 -2.25807,-3.39788 L 456,741.70423 v -4.48408 -4.48408 l 1.95059,-3.15613 1.95059,-3.15612 4.29941,-2.45062 4.29941,-2.45061 6.5,0.0186 6.5,0.0186 3.75,1.83409 3.75,1.83408 v 1.26362 1.26361 l -1.42921,1.18614 -1.4292,1.18613 -4.60574,-1.56369 L 476.93011,727 h -1.99718 -1.99717 l -3.50387,1.46401 -3.50387,1.46401 -1.48095,3.54441 -1.48095,3.54441 0.60155,2.39675 0.60154,2.39675 2.38276,2.23849 2.38276,2.23848 4.86703,0.46766 4.86703,0.46766 3.29516,-1.70399 3.29515,-1.70399 2.0887,2.08871 2.08871,2.0887 -1.46826,1.37262 -1.46825,1.37262 -3.39922,1.13135 L 479.70155,753 h -5.13888 -5.13889 z"
       id="path8290" />
  </g>
</svg>
